<svg width="133" height="16" viewBox="0 0 133 16" fill="none" xmlns="http://www.w3.org/2000/svg">
<path fill-rule="evenodd" clip-rule="evenodd" d="M62.8128 0.0726312C62.4054 0.114304 62.3872 0.129402 62.6589 0.201474C62.9633 0.282302 62.9632 0.283209 62.6512 0.290255C62.4776 0.29408 62.2521 0.242643 62.1499 0.175806C62.0048 0.0808854 61.9066 0.0918571 61.7014 0.226135C61.4537 0.388095 61.4806 0.397959 62.1733 0.397959C62.6238 0.397959 62.8711 0.436914 62.8128 0.498618C62.6697 0.650108 63.3068 0.619508 63.8052 0.451006C64.0463 0.369473 65.099 0.238818 66.1445 0.160707L68.0455 0.0186788L65.66 0.0221009C64.348 0.0240134 63.0667 0.0466614 62.8128 0.0726312ZM70.4071 0.23137C70.2668 0.357696 69.8687 0.516635 69.5221 0.584579C69.1586 0.655745 68.892 0.770194 68.892 0.854948C68.892 0.952989 68.7255 1.00302 68.3918 1.00513C67.9577 1.00785 67.9252 1.02496 68.1459 1.13478C68.3746 1.24862 68.3567 1.27751 67.9684 1.42326C67.6592 1.53932 67.4898 1.55442 67.3705 1.47641C67.2791 1.41662 67.1615 1.39558 67.1093 1.42971C66.9485 1.53479 67.2008 1.70652 67.516 1.70652C67.6803 1.70652 67.8147 1.75181 67.8147 1.80718C67.8147 1.86254 67.9557 1.90783 68.1279 1.90783C68.3934 1.90783 68.416 1.93853 68.2764 2.10915C68.1222 2.29768 67.9541 2.31047 65.6382 2.31047C63.5027 2.31047 63.1768 2.28983 63.2533 2.15948C63.3628 1.97256 63.2254 1.97004 62.5622 2.1468C61.9489 2.31037 53.4024 2.47263 53.0665 2.32708C52.8427 2.23024 53.6445 2.11227 54.5404 2.11026C54.8816 2.10945 55.0406 2.06114 55.0406 1.95816C55.0406 1.77205 55.0395 1.77205 55.6262 1.9635C56.0253 2.09365 56.208 2.09959 56.7223 1.99883C57.2274 1.89978 57.3867 1.9034 57.6002 2.01866C57.825 2.14015 57.8506 2.13905 57.786 2.01131C57.7449 1.92978 57.5431 1.83496 57.3378 1.80073C57.0457 1.75191 57.1319 1.72453 57.7339 1.67481C58.1572 1.63988 58.834 1.58271 59.2382 1.54788C59.7178 1.50651 60.0505 1.52664 60.1961 1.60576C60.3482 1.6882 60.7034 1.70531 61.3085 1.65941C61.9751 1.60878 62.3134 1.63133 62.6592 1.7492C63.2394 1.94709 63.4172 1.94649 64.2278 1.74406C64.7391 1.61633 65.0164 1.60224 65.4861 1.68025C66.0057 1.76651 66.0836 1.75785 66.0528 1.61754C66.0271 1.50057 65.8264 1.44773 65.3384 1.4293C64.965 1.41531 64.4172 1.37585 64.121 1.34183C63.6611 1.28889 63.6274 1.26785 63.8901 1.19829C64.0594 1.1534 64.5442 1.1076 64.9675 1.09643C65.691 1.0773 65.7048 1.07207 65.1983 1.00966C64.6792 0.945642 64.6735 0.940105 65.0389 0.85827C65.2474 0.811564 65.7519 0.745532 66.1599 0.71151C67.2069 0.624138 67.0747 0.454127 65.9309 0.417185C64.5408 0.372292 63.9975 0.457146 63.9386 0.72842C63.8927 0.939803 63.8009 0.954197 62.1972 1.00191L60.5042 1.05224L61.7355 1.14686C62.7255 1.22296 62.8762 1.25517 62.505 1.31113C61.8869 1.40434 59.849 1.39971 59.273 1.30388C58.8834 1.23906 58.9416 1.22517 59.645 1.2151C60.8751 1.19759 60.5305 1.11757 59.1194 1.09321C57.6634 1.06794 57.3492 1.02345 57.3492 0.842366C57.3492 0.756504 57.2542 0.730132 57.0915 0.770899C56.8964 0.819919 56.8579 0.794755 56.9329 0.66712C57.0095 0.536465 56.9427 0.498618 56.6354 0.498618C56.3565 0.498618 56.2637 0.540894 56.3226 0.64125C56.3686 0.719764 56.3119 0.807639 56.1963 0.836628C56.0807 0.865618 55.9639 1.0161 55.9366 1.17091C55.894 1.4131 55.8018 1.46151 55.2778 1.51678C54.9427 1.55211 54.6426 1.63193 54.6109 1.69414C54.5444 1.82459 53.9633 1.84975 53.9633 1.72212C53.9633 1.67531 54.1062 1.55241 54.2811 1.44893C54.5815 1.27117 54.5835 1.25688 54.3196 1.19034C54.166 1.15159 53.7806 1.14444 53.4631 1.17444C52.9984 1.21832 52.8859 1.19698 52.8859 1.06512C52.8859 0.862296 52.5988 0.859477 52.1963 1.05838C51.9974 1.15662 51.7357 1.18662 51.4429 1.14454C51.0423 1.08707 51.0034 1.10287 51.0793 1.29271C51.1359 1.43454 51.0922 1.5052 50.9477 1.5052C50.8287 1.5052 50.7313 1.43253 50.7313 1.34375C50.7313 1.1997 50.4927 1.19014 48.5229 1.25446C46.3519 1.32553 45.0368 1.26765 45.0368 1.10106C45.0368 1.05465 45.1581 0.99285 45.3061 0.963659C45.4542 0.934468 44.6059 0.925208 43.4208 0.943125C42.2357 0.960941 41.1276 1.01057 40.9583 1.05335C40.6768 1.12451 40.671 1.11686 40.8902 0.96376C41.1773 0.763047 42.2153 0.643666 44.5161 0.546631C45.7244 0.495698 46.2585 0.507677 46.3339 0.5876C46.3961 0.65343 46.6046 0.673763 46.8327 0.636318C47.1909 0.577533 47.2099 0.589915 47.0542 0.780361C46.9603 0.89491 46.8837 1.01892 46.8837 1.05586C46.8837 1.1222 48.7196 1.04096 49.5385 0.938293C49.9941 0.881219 50.1247 0.699934 49.7103 0.699934C49.5719 0.699934 49.1738 0.643364 48.8253 0.574111L48.1918 0.448288L49.1922 0.391517C49.7424 0.360313 48.0456 0.347026 45.4216 0.362125C42.6234 0.378129 40.396 0.434498 40.0349 0.498316C39.6963 0.558207 38.4151 0.64739 37.1877 0.696411C35.9603 0.745431 34.5059 0.832199 33.9557 0.889071C33.4055 0.946044 31.5009 1.08757 29.7233 1.20363C27.9457 1.31959 25.4871 1.52392 24.2597 1.6576C23.0323 1.79137 20.9363 1.9951 19.6018 2.11036C17.6649 2.27775 16.5121 2.45068 13.8868 2.96736C10.5212 3.6299 6.34688 4.64806 5.3585 5.04757C5.05439 5.17047 4.629 5.27304 4.41338 5.27546C3.88748 5.2814 3.76221 5.76275 4.24285 5.93095C4.47925 6.01369 4.55989 6.14112 4.55989 6.43222V6.82248L3.44409 7.10019C2.32428 7.37882 1.3279 7.88754 1.3279 8.18056C1.3279 8.26451 1.46641 8.54464 1.63571 8.80293C2.02939 9.40356 2.02447 9.68067 1.6157 9.91973C0.997464 10.2814 0.554526 10.857 0.478035 11.398C0.436789 11.6895 0.334596 12.0842 0.250872 12.275C0.13883 12.5306 0.149141 12.6535 0.289964 12.7415C0.525592 12.8886 1.84132 13.1816 2.26579 13.1816C2.43709 13.1816 2.53959 13.2215 2.49342 13.2702C2.41862 13.3496 0.926359 13.7777 0.202392 13.9276C0.0487951 13.9594 -0.0356975 14.0288 0.0144754 14.082C0.068496 14.139 0.395388 14.0973 0.815548 13.9795C1.206 13.87 1.5506 13.797 1.58138 13.8171C1.61216 13.8373 1.28634 14.0473 0.857257 14.284C0.235328 14.6269 0.085733 14.768 0.119746 14.9797C0.143139 15.1257 0.110049 15.3004 0.0461788 15.368C-0.129426 15.5539 0.563607 15.6297 1.91504 15.5722C2.62501 15.542 3.95905 15.3606 5.25246 15.1182C7.71155 14.6576 10.9677 14.2583 11.8727 14.3065C12.4435 14.3369 12.4914 14.3635 12.5629 14.6903C12.6594 15.1304 13.0151 15.1912 13.8017 14.902C14.3685 14.6937 14.6413 14.6867 27.9768 14.5412C35.4553 14.4594 44.0326 14.3127 47.0376 14.2149C57.8728 13.8624 74.4083 14.0455 85.9754 14.646C87.5414 14.7273 89.1343 14.8358 89.5152 14.887C89.8961 14.9383 91.3775 15.0071 92.8071 15.0398C94.2367 15.0726 95.475 15.1272 95.5589 15.1611C95.6428 15.195 96.2738 15.2141 96.9611 15.2034C97.6485 15.1926 99.9076 15.2627 101.982 15.359C106.209 15.5553 106.25 15.556 107.225 15.4501C107.787 15.389 107.98 15.4076 108.186 15.5429C108.329 15.6359 108.596 15.6976 108.779 15.6799C109.177 15.6417 109.354 15.3961 108.984 15.3961C108.843 15.3961 108.756 15.3395 108.791 15.2702C108.879 15.0946 109.8 15.0529 110.092 15.2112C110.305 15.3271 110.291 15.3487 109.967 15.3989C109.445 15.4794 109.513 15.7245 110.087 15.8322C110.423 15.8952 110.711 15.884 111.016 15.796C111.392 15.6869 111.448 15.6211 111.398 15.343C111.344 15.0366 111.366 15.0199 111.778 15.0563C112.019 15.0776 112.13 15.0684 112.024 15.0358C111.918 15.0033 111.831 14.9287 111.831 14.8702C111.831 14.7404 115.757 14.8591 116.163 15.0012C116.309 15.0523 116.8 15.0941 117.254 15.0941C117.708 15.0941 118.155 15.1431 118.246 15.203C118.366 15.2811 118.505 15.2743 118.739 15.1788C118.982 15.0797 119.134 15.0738 119.335 15.156C119.525 15.2337 119.681 15.235 119.862 15.1605C120.048 15.0836 120.238 15.0937 120.553 15.1969C121.247 15.4236 121.268 15.4278 121.162 15.3154C121.106 15.2566 121.139 15.177 121.234 15.1385C121.33 15.0999 121.46 15.1231 121.523 15.1901C121.586 15.2571 122.063 15.3372 122.583 15.368C123.391 15.4159 123.528 15.4001 123.528 15.2591C123.528 15.1371 123.671 15.0941 124.076 15.0941C124.402 15.0941 124.585 15.1348 124.529 15.1947C124.38 15.3519 124.755 15.3128 125.012 15.1444C125.15 15.0541 125.173 14.9934 125.069 14.9934C124.973 14.9934 124.933 14.9533 124.979 14.9042C125.061 14.8181 124.625 14.772 122.412 14.6327C121.127 14.5518 121.048 14.4186 122.291 14.4296C123.016 14.4361 123.253 14.3985 123.417 14.252C123.573 14.1123 123.928 14.0473 124.846 13.9903L126.068 13.9144L124.668 13.9003C122.365 13.8771 116.91 13.3668 116.91 13.1744C116.91 13.123 116.664 13.0809 116.363 13.0809C116.037 13.0809 115.853 13.1217 115.91 13.1816C116.065 13.3453 115.569 13.2962 115.301 13.1213C115.166 13.0328 114.763 12.9394 114.405 12.9137C113.195 12.8269 113.017 12.785 113.211 12.632C113.348 12.5245 113.325 12.4694 113.11 12.3875C112.853 12.2898 112.857 12.2815 113.162 12.2787C113.343 12.2771 113.531 12.3436 113.58 12.4266C113.687 12.6098 114.911 12.6368 115.179 12.4619C115.278 12.3972 116.055 12.3242 116.94 12.2963C118.393 12.2505 118.507 12.2599 118.315 12.4108C118.073 12.602 118.249 12.6761 118.911 12.6608C119.123 12.6558 119.625 12.6866 120.027 12.7291C120.518 12.7809 120.758 12.7709 120.758 12.6983C120.758 12.6389 120.533 12.5684 120.258 12.5415C119.982 12.5146 120.856 12.5097 122.199 12.5305C124.101 12.5601 124.687 12.5386 124.848 12.4331C125.022 12.3196 124.85 12.2792 123.792 12.1833C122.112 12.0312 121.072 11.8764 120.604 11.7084C120.265 11.5869 120.441 11.5759 122.066 11.6155C123.192 11.643 123.793 11.6263 123.605 11.5726C123.436 11.5241 122.834 11.4813 122.268 11.4774C121.701 11.4736 121.195 11.4251 121.143 11.3697C121.089 11.3126 121.218 11.2691 121.441 11.2691C121.658 11.2691 121.836 11.2125 121.838 11.1432C121.839 11.0591 121.89 11.0674 121.991 11.1684C122.113 11.2899 122.168 11.2937 122.273 11.188C122.365 11.0942 122.641 11.0728 123.235 11.113C124.453 11.1956 123.893 11.0715 122.427 10.9342C121.696 10.8657 121.14 10.7633 121.103 10.6903C121.062 10.6075 121.206 10.5645 121.524 10.5645C121.807 10.5645 121.968 10.6061 121.912 10.6651C121.802 10.7816 122.055 10.7924 122.752 10.7012C123.099 10.6558 123.184 10.6116 123.04 10.5518C122.928 10.5051 122.709 10.4662 122.555 10.4653C122.401 10.4645 122.159 10.3871 122.017 10.2933C121.775 10.1336 121.775 10.127 122.024 10.1887C122.377 10.276 123.143 10.0508 123.143 9.85984C123.143 9.48741 122.682 9.37537 120.628 9.24804C118.501 9.11618 118.037 8.94274 119.988 9.00878C120.971 9.04199 121.349 9.02689 121.143 8.96278C120.913 8.89171 121.1 8.86564 121.874 8.86031C122.445 8.85648 122.913 8.81179 122.913 8.76116C122.913 8.71053 122.376 8.64077 121.72 8.60624C121.064 8.57162 120.285 8.51303 119.988 8.47609C119.692 8.43915 119.319 8.41882 119.16 8.431C119 8.44308 118.79 8.40966 118.692 8.35661C118.595 8.30366 117.963 8.23673 117.289 8.20794C116.615 8.17915 116.029 8.14895 115.987 8.141C115.945 8.13295 115.746 8.13526 115.546 8.14623C115.342 8.15741 115.223 8.12288 115.276 8.06722C115.327 8.01286 115.254 7.93948 115.113 7.90415C114.972 7.86882 114.808 7.89157 114.749 7.95488C114.62 8.09107 113.501 7.99303 112.903 7.79302C112.689 7.72136 112.256 7.63107 111.941 7.59241C111.134 7.49336 111.207 7.30302 112.024 7.3764C112.467 7.41626 112.579 7.4065 112.37 7.346C111.895 7.2084 110.747 7.22078 110.793 7.36291C110.814 7.42904 110.623 7.51017 110.369 7.54329C109.917 7.60208 109.915 7.606 110.244 7.72498C110.429 7.79192 110.922 7.84668 111.34 7.84668C111.758 7.84668 112.369 7.90858 112.697 7.98417C113.025 8.05987 114.228 8.202 115.371 8.30014C116.514 8.39828 118.176 8.55823 119.065 8.65557C120.614 8.82528 120.643 8.83283 119.757 8.83937C119.25 8.84319 118.28 8.78078 117.603 8.70076C116.926 8.62074 116.233 8.55722 116.064 8.55964C115.782 8.56366 115.786 8.57182 116.102 8.65506C116.293 8.70519 116.45 8.80424 116.451 8.8752C116.453 8.97284 116.486 8.97053 116.588 8.86534C116.688 8.76226 116.905 8.74435 117.428 8.79568C118.197 8.87107 118.471 9.01673 118.045 9.12373C117.89 9.16268 117.749 9.14104 117.715 9.07269C117.638 8.92231 117.262 8.91738 117.187 9.06585C117.147 9.14336 116.47 9.09655 114.981 8.91355C111.617 8.50005 111.151 8.45043 110.668 8.45415L110.215 8.45777L110.6 8.60161L110.985 8.74545L110.476 8.74908C110.176 8.75109 110.006 8.79407 110.062 8.85326C110.114 8.90862 110.395 8.95392 110.686 8.95392C110.978 8.95392 111.216 8.99921 111.216 9.05458C111.216 9.10994 111.117 9.15523 110.996 9.15523C110.593 9.15523 108.372 8.94647 108.138 8.88658C108.011 8.85416 107.11 8.81189 106.137 8.79266C104.393 8.75814 104.38 8.75955 105.249 8.88758C106.38 9.05407 106.599 9.20093 105.598 9.12131C102.441 8.87007 101.973 8.81803 102.161 8.73992C102.274 8.69321 102.643 8.64862 102.982 8.64077C103.461 8.6296 103.376 8.60846 102.597 8.54534C100.344 8.36265 100.263 8.36205 100.36 8.52743C100.438 8.6603 100.298 8.67318 99.3451 8.62094C98.1548 8.55571 97.5169 8.35651 98.4494 8.34131L98.9804 8.33265L98.5364 8.24569C97.7514 8.09208 95.1488 8.0027 95.2725 8.13375C95.3999 8.26854 94.2923 8.2789 93.6707 8.14865C93.3562 8.08282 93.4266 8.0641 94.0554 8.04648L94.8249 8.02484L94.2093 7.93324C92.0614 7.61365 83.4608 7.15425 83.2764 7.34932C83.2358 7.39241 83.0126 7.36764 82.7805 7.29426C82.5484 7.22078 81.7007 7.12818 80.8966 7.08842C80.0924 7.04866 79.296 6.97689 79.1267 6.92887C78.7475 6.82127 85.5096 6.89173 88.5149 7.02671C90.7706 7.12808 96.5451 7.40952 97.9544 7.48682C98.832 7.53504 99.2112 7.48471 99.2112 7.32033C99.2112 7.2537 99.1423 7.25551 99.0136 7.32527C98.8885 7.39331 98.7335 7.39834 98.5904 7.33916C98.4663 7.28782 97.522 7.24514 96.492 7.24424C94.5199 7.24263 94.0667 7.19461 94.2398 7.00568C94.3001 6.93985 94.239 6.94679 94.0974 7.02178C93.8918 7.13079 93.8275 7.12838 93.7216 7.00769C93.6294 6.9028 93.2022 6.85076 92.1906 6.82137C91.0844 6.78916 90.7268 6.74094 90.5013 6.59348C90.2224 6.41099 90.2397 6.40817 91.1882 6.47833C91.8603 6.52805 92.1301 6.51728 92.0603 6.4436C92.0049 6.38482 91.795 6.3368 91.5939 6.3368C91.084 6.3368 90.3973 6.15703 90.1741 5.96507C90.0257 5.83733 89.9402 5.82878 89.7646 5.9241C89.6033 6.01167 89.5137 6.01399 89.4366 5.93235C89.2584 5.74372 89.4526 5.71322 90.3609 5.78751C90.8747 5.82948 91.2659 5.91555 91.3138 5.99708C91.4069 6.15562 91.8238 6.18652 91.8238 6.03493C91.8238 5.97956 92.066 5.94554 92.3622 5.95943C92.6583 5.97322 92.9007 6.01218 92.9008 6.046C92.901 6.07982 93.1808 6.05868 93.5226 5.99899C93.9865 5.91806 94.2189 5.92108 94.4389 6.01097C94.601 6.0772 94.7703 6.0927 94.8149 6.04539C94.8596 5.99819 95.2265 6.00241 95.63 6.05496C96.0337 6.1074 97.1778 6.1529 98.1724 6.15602C99.2702 6.15934 99.9807 6.20111 99.9807 6.26231C99.9807 6.36388 101.301 6.31234 101.466 6.20433C101.654 6.08103 101.318 5.93417 100.846 5.93417C100.094 5.93417 98.6596 5.74272 98.1764 5.57784C97.9414 5.49771 97.5558 5.43188 97.3194 5.43148C96.6576 5.43057 94.5361 5.12628 94.3632 5.00751C94.256 4.93382 94.6553 4.91973 95.6817 4.9611C97.2456 5.02412 97.7233 5.09407 97.5852 5.24013C97.5384 5.28965 97.6405 5.33022 97.8122 5.33022C98.0385 5.33022 98.0976 5.28472 98.0271 5.16463C97.9038 4.95456 98.3521 4.72979 98.7566 4.79894C98.922 4.82723 99.0573 4.91309 99.0573 4.98969C99.0573 5.06619 99.1958 5.1289 99.3651 5.1289C99.5469 5.1289 99.6729 5.06176 99.6729 4.96513C99.6729 4.82894 99.8044 4.80961 100.452 4.85028C101.265 4.90141 101.322 4.77358 100.519 4.69879C100.238 4.67252 100.418 4.64453 100.981 4.62702C101.489 4.61111 101.731 4.5779 101.52 4.55303C101.066 4.49979 100.733 4.32675 101.066 4.31729C101.189 4.31377 101.129 4.26888 100.933 4.21744C100.737 4.1661 100.62 4.07833 100.673 4.02246C100.833 3.85255 100.51 3.90912 100.149 4.11447L99.8073 4.30793L100.163 4.35242C100.396 4.38141 100.332 4.39812 99.9807 4.40054C99.6845 4.40255 99.2689 4.36792 99.0573 4.32363C98.7001 4.24884 98.7112 4.2417 99.2112 4.22398C99.7393 4.20536 99.7346 4.20224 98.9804 4.06494C98.5571 3.98794 98.0245 3.92402 97.7967 3.92291C97.5689 3.92191 97.3336 3.86926 97.2739 3.80605C97.1938 3.72129 97.5043 3.71012 98.4576 3.76347C99.4866 3.82105 99.7117 3.81038 99.5627 3.71073C99.3451 3.56517 97.4178 3.34976 95.4767 3.25384L94.123 3.187L94.2815 3.45988C94.5336 3.89342 94.4897 3.9211 93.5552 3.91889C92.4223 3.91627 87.6488 3.63976 87.5433 3.57071C87.4434 3.50548 87.6895 3.49018 88.6688 3.50065L89.4383 3.50891L88.8611 3.40301C88.5438 3.34473 88.284 3.25625 88.284 3.20643C88.284 3.096 88.4233 3.08584 89.5537 3.11302C90.607 3.13828 90.7794 2.94049 89.7438 2.89479C89.3616 2.87788 89.0489 2.81879 89.0489 2.76343C89.0489 2.70807 89.3616 2.64898 89.7438 2.63207C90.1581 2.61375 90.4387 2.64425 90.4387 2.70756C90.4387 2.76595 90.5813 2.81376 90.7556 2.81376C90.9298 2.81376 91.0297 2.76846 90.9773 2.7131C90.925 2.65774 91.0289 2.61244 91.2082 2.61244C91.3875 2.61244 91.4914 2.56715 91.439 2.51178C91.3867 2.45642 90.9712 2.41113 90.5156 2.41113C90.0601 2.41113 89.6408 2.3619 89.584 2.30181C89.5192 2.23326 89.6163 2.19984 89.8443 2.21222C90.6729 2.25742 91.5706 2.20558 91.4314 2.12052C91.351 2.0715 90.8016 1.97779 90.2107 1.91226C89.6197 1.84673 89.0657 1.75725 88.9795 1.71326C88.8932 1.66927 88.5192 1.60304 88.1481 1.5659C87.5702 1.50822 87.4412 1.52886 87.2473 1.70994C87.1003 1.84704 86.9318 1.89787 86.7674 1.85459C86.5489 1.79691 86.4144 1.77255 85.9754 1.71115C85.9331 1.70521 86.0339 1.64904 86.1995 1.58623C86.481 1.47943 86.4827 1.46796 86.2266 1.40917C85.8157 1.31496 85.9228 1.1538 86.4013 1.14666C86.6326 1.14313 87.5145 1.13115 88.3609 1.11988C89.4204 1.10589 89.8281 1.06905 89.6691 1.00191C89.5422 0.948258 89.2998 0.903365 89.1305 0.902157C88.9612 0.900949 88.6243 0.8323 88.3819 0.74966C88.1393 0.666919 87.6545 0.6029 87.3045 0.607228C86.9544 0.611556 86.7546 0.63803 86.8604 0.665912C87.2097 0.758115 87.0605 0.901251 86.6149 0.901251C86.374 0.901251 86.0538 0.812067 85.9029 0.703155C85.5619 0.456743 85.2499 0.548142 84.7311 1.0462C84.2631 1.49564 83.9508 1.49634 83.2678 1.04962C82.7628 0.71926 82.6965 0.703659 82.3125 0.824046C82.0855 0.895212 81.8088 1.0776 81.6977 1.2293C81.5468 1.43504 81.3834 1.5052 81.0546 1.5052C80.5089 1.5052 80.1041 1.40958 80.2039 1.30409C80.2451 1.2604 80.1034 1.19588 79.8888 1.16065C79.4165 1.08314 79.5359 0.901251 80.0592 0.901251C80.2659 0.901251 80.4349 0.855955 80.4349 0.800593C80.4349 0.655343 80.8581 0.676481 80.9397 0.825757C80.9774 0.89501 81.0651 0.916853 81.1345 0.874375C81.2041 0.831998 81.1962 0.757813 81.1171 0.709698C80.9286 0.594847 75.6638 0.502543 75.6638 0.614174C75.6638 0.661282 75.762 0.699934 75.8819 0.699934C76.0018 0.699934 76.1351 0.756605 76.178 0.825757C76.2371 0.921181 76.2937 0.916148 76.4123 0.804619C76.5491 0.675776 76.7071 0.675776 77.6937 0.804619C78.6137 0.924805 78.8106 0.98369 78.7736 1.12773C78.7404 1.25708 78.8324 1.30388 79.1199 1.30388C79.5227 1.30388 79.6413 1.44088 79.3429 1.56147C79.2503 1.59891 78.976 1.53369 78.7334 1.41642C78.1934 1.15521 78.1814 1.15501 78.0817 1.40454C77.9741 1.6738 77.6298 1.6584 77.0877 1.36015C76.7947 1.1989 76.4601 1.11686 76.1142 1.12149C75.8242 1.12532 75.2201 1.10297 74.7716 1.07187C73.9878 1.01731 73.9606 1.02355 74.0614 1.23503C74.1191 1.35592 74.243 1.48698 74.3365 1.52614C74.6183 1.64411 74.2377 1.80768 73.8397 1.73963C73.6009 1.69877 73.5447 1.65367 73.6698 1.60314C74.1628 1.40384 72.9419 1.00191 71.8436 1.00191C70.6867 1.00191 71.2986 0.807135 72.8078 0.695002C73.7577 0.62444 74.2205 0.626554 74.3601 0.70235C74.4797 0.767275 74.5945 0.772811 74.6481 0.716241C74.7616 0.595954 74.2245 0.501738 73.4147 0.500027C72.7284 0.498517 71.1992 0.329914 71.0628 0.240832C71.0165 0.210534 71.0805 0.143595 71.205 0.0920584C71.3796 0.0198864 71.3433 -0.00125203 71.0467 5.65235e-05C70.8252 0.000962448 70.5537 0.0991047 70.4071 0.23137ZM75.2791 0.196643C74.6905 0.239221 75.4719 0.269016 77.4337 0.278881C79.4688 0.289047 80.4336 0.261165 80.281 0.196643C80.0286 0.0899447 76.7536 0.0899447 75.2791 0.196643ZM50.5774 0.297301C50.5774 0.411145 51.0477 0.411145 51.7317 0.297301C52.1263 0.231571 52.0761 0.218686 51.3854 0.20852C50.9372 0.201977 50.5774 0.241435 50.5774 0.297301ZM59.3088 0.309783C59.4133 0.378633 59.5375 0.409535 59.5848 0.378532C59.6322 0.347529 59.5468 0.291262 59.395 0.253414C59.1757 0.198857 59.158 0.210332 59.3088 0.309783ZM57.7912 0.666113C57.6003 0.817503 57.6123 0.822335 57.9162 0.716442C58.3279 0.573004 58.9419 0.56173 58.8113 0.699934C58.7015 0.816094 59.6841 0.82304 60.7351 0.713523L61.4276 0.641351L60.7525 0.577735C60.3811 0.542706 59.9091 0.555892 59.7036 0.607027C59.4675 0.665711 59.2237 0.662892 59.0421 0.599276C58.608 0.447282 58.0282 0.478285 57.7912 0.666113ZM74.9728 0.600886C75.026 0.657154 75.1339 0.677185 75.2127 0.645277C75.4262 0.559013 75.3865 0.498618 75.1161 0.498618C74.9842 0.498618 74.9197 0.544618 74.9728 0.600886ZM88.7457 0.592532C88.7457 0.662187 89.3493 0.699934 90.4644 0.699934C91.4095 0.699934 92.1541 0.683124 92.1188 0.66269C92.0836 0.642156 91.3102 0.593841 90.4002 0.555289C89.2636 0.507073 88.7457 0.518749 88.7457 0.592532ZM50.691 0.668932C50.3183 0.732447 50.5129 0.901251 50.9586 0.901251C51.4545 0.901251 51.8248 0.798478 51.7216 0.689365C51.6341 0.596658 51.1687 0.587398 50.691 0.668932ZM54.3537 0.693996C54.3003 0.750465 54.4986 0.76496 54.8448 0.730031C55.6176 0.652021 55.6796 0.599276 54.9984 0.599276C54.6929 0.599276 54.4028 0.641855 54.3537 0.693996ZM70.1904 0.790124C70.2371 0.839749 70.1725 1.00956 70.0465 1.16759C69.9204 1.32563 69.817 1.39971 69.8164 1.33227C69.8159 1.26483 69.6251 1.14364 69.3922 1.06301L68.969 0.91635L69.3537 0.814483C69.8464 0.684131 70.0835 0.677186 70.1904 0.790124ZM38.7267 0.99597C38.7267 1.04811 38.6575 1.11867 38.5728 1.1529C38.4882 1.18712 38.4189 1.16971 38.4189 1.11434C38.4189 1.05888 38.1245 0.996172 37.7648 0.974933C37.1395 0.938092 37.1463 0.935676 37.9187 0.918866C38.363 0.909203 38.7267 0.943829 38.7267 0.99597ZM67.0164 1.17132C67.1273 1.20041 67.2602 1.19678 67.3113 1.16336C67.3624 1.12995 67.2716 1.10619 67.1093 1.11052C66.93 1.11535 66.8936 1.13921 67.0164 1.17132ZM85.4785 1.28506C85.5494 1.42427 84.9586 1.44923 84.8293 1.31244C84.7373 1.2152 85.0292 1.10337 85.2733 1.14243C85.3526 1.15511 85.4449 1.21923 85.4785 1.28506ZM33.1861 1.27459C33.0592 1.30519 32.8337 1.39941 32.685 1.48416C32.3563 1.67149 32.1419 1.57073 32.4136 1.35663C32.5207 1.27228 32.7902 1.20685 33.0125 1.21118C33.2494 1.21581 33.3214 1.24208 33.1861 1.27459ZM92.1028 1.27198C92.2138 1.30107 92.3466 1.29744 92.3977 1.26402C92.4488 1.2306 92.358 1.20685 92.1958 1.21118C92.0165 1.21601 91.98 1.23987 92.1028 1.27198ZM53.2707 1.40454C53.2184 1.4599 52.92 1.5045 52.6075 1.50369C52.1841 1.50248 52.0983 1.47732 52.2703 1.40454C52.5775 1.27469 53.3934 1.27469 53.2707 1.40454ZM49.7309 1.5052C49.6786 1.56056 49.207 1.60264 48.683 1.59881C48.0081 1.59378 47.82 1.5665 48.0379 1.5052C48.4792 1.38119 49.848 1.38119 49.7309 1.5052ZM85.108 1.65558C85.0594 1.73833 84.9578 1.781 84.8819 1.7503C84.6646 1.66253 84.7213 1.5052 84.9703 1.5052C85.1076 1.5052 85.1616 1.56429 85.108 1.65558ZM91.7468 1.60586C91.7992 1.66122 91.9805 1.70652 92.1498 1.70652C92.3191 1.70652 92.4148 1.66122 92.3625 1.60586C92.3101 1.5505 92.1288 1.5052 91.9595 1.5052C91.7903 1.5052 91.6945 1.5505 91.7468 1.60586ZM96.8257 1.60586C96.7666 1.66847 97.0396 1.7038 97.5477 1.69947C98.1462 1.69424 98.2824 1.66927 98.0569 1.60586C97.628 1.48527 96.9396 1.48527 96.8257 1.60586ZM69.7476 1.76007C69.5832 1.8413 69.3408 1.90622 69.2089 1.90431C69.0552 1.902 69.1072 1.84905 69.3537 1.75685C69.8573 1.56862 70.1302 1.57083 69.7476 1.76007ZM72.2779 1.70652C72.2779 1.76188 72.2087 1.80718 72.124 1.80718C72.0394 1.80718 71.9701 1.76188 71.9701 1.70652C71.9701 1.65116 72.0394 1.60586 72.124 1.60586C72.2087 1.60586 72.2779 1.65116 72.2779 1.70652ZM73.2013 1.70652C73.2013 1.76188 73.0975 1.80718 72.9705 1.80718C72.8435 1.80718 72.7396 1.76188 72.7396 1.70652C72.7396 1.65116 72.8435 1.60586 72.9705 1.60586C73.0975 1.60586 73.2013 1.65116 73.2013 1.70652ZM55.964 1.80718C55.964 1.86254 55.8948 1.90783 55.8101 1.90783C55.7255 1.90783 55.6562 1.86254 55.6562 1.80718C55.6562 1.75181 55.7255 1.70652 55.8101 1.70652C55.8948 1.70652 55.964 1.75181 55.964 1.80718ZM75.3945 1.77315C75.2888 1.80114 75.1156 1.80114 75.0097 1.77315C74.904 1.74527 74.9905 1.72242 75.2021 1.72242C75.4137 1.72242 75.5004 1.74527 75.3945 1.77315ZM78.0846 1.76731C78.0335 1.80073 77.9007 1.80436 77.7897 1.77527C77.6669 1.74316 77.7034 1.7193 77.8827 1.71447C78.0449 1.71014 78.1357 1.7339 78.0846 1.76731ZM81.4591 1.89062C81.319 1.99188 81.2044 2.10009 81.2044 2.1312C81.2044 2.1624 81.9684 2.22048 82.902 2.26034C84.2953 2.31983 84.5689 2.35707 84.4284 2.4677C84.1529 2.68482 83.0349 2.74139 81.4894 2.61657C79.6215 2.46568 79.5017 2.4385 79.8871 2.25299C80.0515 2.17387 80.3457 2.10915 80.5412 2.10915C80.7367 2.10915 80.8966 2.06023 80.8966 2.00054C80.8966 1.93088 80.7168 1.91659 80.3964 1.96078C80.0606 2.00708 79.9468 1.99631 80.0501 1.92817C80.2337 1.80708 80.6563 1.7341 81.2667 1.71819C81.6904 1.70712 81.7004 1.71618 81.4591 1.89062ZM88.4379 1.80718C88.4379 1.9333 88.2746 1.9333 87.9762 1.80718C87.7895 1.72826 87.8117 1.70934 88.0916 1.70803C88.282 1.70722 88.4379 1.75181 88.4379 1.80718ZM92.7716 2.00849C92.7716 2.1469 92.8065 2.20357 92.8491 2.13432C92.8919 2.06516 92.8919 1.95192 92.8491 1.88267C92.8065 1.81352 92.7716 1.87009 92.7716 2.00849ZM94.8076 1.88267C94.8856 1.96984 94.7977 2.00849 94.5214 2.00849C94.3021 2.00849 94.0817 2.07835 94.0316 2.16381C93.9509 2.30131 93.9072 2.2995 93.6516 2.14821C93.4644 2.03738 93.3628 2.02047 93.3628 2.10019C93.3628 2.55607 94.2693 2.91442 95.4229 2.91442C95.7996 2.91442 96.1339 2.96616 96.1661 3.02947C96.2095 3.11453 96.3169 3.11241 96.577 3.02132C96.8063 2.94099 97.2871 2.91714 97.9549 2.95297C99.2814 3.02393 99.1774 3.02454 101.058 2.93515L102.674 2.85835L101.597 2.77933C101.004 2.73595 100.035 2.65462 99.4421 2.59865C98.8495 2.54269 98.1721 2.50111 97.9366 2.50615C97.3533 2.51883 96.9027 2.34429 96.9027 2.10563C96.9027 1.99682 96.8334 1.90783 96.7487 1.90783C96.6641 1.90783 96.5948 1.97578 96.5948 2.05882C96.5948 2.27836 96.1718 2.24383 95.9792 2.00849C95.787 1.77356 95.3273 1.72886 95.4618 1.95816C95.5803 2.15998 95.3807 2.14901 95.003 1.933C94.8336 1.83606 94.7457 1.81352 94.8076 1.88267ZM46.8837 2.15948C46.8837 2.24252 46.9834 2.31047 47.1054 2.31047C47.4029 2.31047 47.5504 2.13935 47.3078 2.07533C47.2015 2.04735 47.2618 2.02077 47.442 2.01644C47.8542 2.00648 48.2288 2.27624 48.0055 2.4223C47.8091 2.55074 46.6537 2.4983 46.6505 2.3608C46.6491 2.30543 46.5931 2.20357 46.526 2.13432C46.4473 2.05329 46.4892 2.00849 46.6437 2.00849C46.7756 2.00849 46.8837 2.07644 46.8837 2.15948ZM78.8615 2.29346C78.9106 2.38979 78.7219 2.41455 78.1157 2.3916C77.6033 2.37217 77.2786 2.31047 77.2352 2.2244C77.1855 2.12586 77.2569 2.10684 77.4925 2.15565C77.6718 2.1929 77.8185 2.18072 77.8185 2.12868C77.8185 1.98917 78.7842 2.14176 78.8615 2.29346ZM86.5141 2.10915C86.4618 2.16451 86.2672 2.2091 86.0818 2.2083C85.8077 2.20699 85.7878 2.18847 85.9754 2.10915C86.2786 1.98101 86.6352 1.98101 86.5141 2.10915ZM76.8951 2.31641C76.8951 2.36855 76.8258 2.41113 76.7411 2.41113C76.6565 2.41113 76.5872 2.34046 76.5872 2.2542C76.5872 2.16794 76.6565 2.12526 76.7411 2.15948C76.8258 2.1937 76.8951 2.26427 76.8951 2.31641ZM71.7777 2.28188C71.5449 2.30493 71.1641 2.30493 70.9313 2.28188C70.6984 2.25883 70.8889 2.24001 71.3545 2.24001C71.8201 2.24001 72.0106 2.25883 71.7777 2.28188ZM66.3711 2.69387C66.2379 2.78084 66.083 2.82191 66.0265 2.78507C65.8789 2.68854 66.2812 2.40146 66.4617 2.47444C66.5517 2.51088 66.515 2.59976 66.3711 2.69387ZM71.8307 2.51682C72.2895 2.67747 72.0314 2.81376 71.2685 2.81376C70.5169 2.81376 70.3986 2.72055 70.9313 2.54802C71.3977 2.39693 71.4799 2.39401 71.8307 2.51682ZM54.8809 2.76796C54.7848 2.84365 54.751 2.95287 54.8056 3.01065C54.9798 3.19505 54.3205 3.12409 53.9419 2.91774L53.5785 2.71984L53.9633 2.71491C54.1749 2.71219 54.4487 2.66841 54.5715 2.61758C54.8765 2.49135 55.0963 2.59825 54.8809 2.76796ZM63.3515 2.61244C63.3515 2.6678 63.278 2.7131 63.1885 2.7131C63.0989 2.7131 63.0683 2.6678 63.1206 2.61244C63.1729 2.55708 63.2462 2.51178 63.2836 2.51178C63.321 2.51178 63.3515 2.55708 63.3515 2.61244ZM67.8896 2.79574C67.8907 2.88865 67.7878 2.99555 67.6608 3.03319C67.2982 3.1407 66.1217 3.12681 66.1217 3.01508C66.1217 2.95971 66.3534 2.91442 66.6365 2.91442C66.9564 2.91442 67.2571 2.83792 67.4308 2.7125C67.7305 2.49588 67.8866 2.52416 67.8896 2.79574ZM62.8348 2.76343C62.9618 2.84647 63.3204 2.91895 63.6317 2.92448C64.6195 2.942 63.584 3.09419 62.3986 3.10567C61.3625 3.11583 60.8243 2.96444 61.6174 2.88603C61.8517 2.86288 61.0951 2.83711 59.9362 2.82886C58.7235 2.8202 57.7887 2.77098 57.7339 2.7131C57.6721 2.64757 58.5055 2.61244 60.1213 2.61244C62.1228 2.61244 62.6487 2.64173 62.8348 2.76343ZM63.9671 2.7131C63.9671 2.76846 63.9366 2.81376 63.8992 2.81376C63.8618 2.81376 63.7885 2.76846 63.7362 2.7131C63.6839 2.65774 63.7145 2.61244 63.8041 2.61244C63.8937 2.61244 63.9671 2.65774 63.9671 2.7131ZM77.1259 2.70938C77.4114 2.78618 77.4139 2.79745 77.1604 2.86499C76.9477 2.92177 76.9263 2.96877 77.0639 3.07718C77.207 3.18992 77.1607 3.21639 76.8204 3.21639C76.5103 3.21639 76.4236 3.17693 76.4891 3.0654C76.6114 2.85684 76.1783 2.87063 75.9983 3.08091C75.8159 3.2943 75.3669 3.18921 75.4208 2.94582C75.4473 2.82594 75.641 2.74209 75.9858 2.70122C76.7114 2.61506 76.777 2.61556 77.1259 2.70938ZM112.87 2.67908C112.976 2.70706 113.149 2.70706 113.255 2.67908C113.361 2.6512 113.274 2.62835 113.063 2.62835C112.851 2.62835 112.765 2.6512 112.87 2.67908ZM53.5016 2.81376C53.5016 2.86912 53.3935 2.91442 53.2616 2.91442C53.1297 2.91442 53.0645 2.86912 53.1168 2.81376C53.1691 2.7584 53.277 2.7131 53.3567 2.7131C53.4365 2.7131 53.5016 2.7584 53.5016 2.81376ZM55.964 2.91442C55.8734 3.02514 55.7044 3.11573 55.5882 3.11573C55.4531 3.11573 55.4061 3.04346 55.4577 2.91442C55.5029 2.80138 55.6676 2.7131 55.8335 2.7131C56.081 2.7131 56.1021 2.74561 55.964 2.91442ZM78.0493 2.81376C77.997 2.86912 77.8891 2.91442 77.8094 2.91442C77.7297 2.91442 77.6646 2.86912 77.6646 2.81376C77.6646 2.7584 77.7726 2.7131 77.9045 2.7131C78.0364 2.7131 78.1017 2.7584 78.0493 2.81376ZM79.5114 2.99303C79.5114 3.25585 79.1137 3.39919 78.8547 3.22978C78.7248 3.14482 78.7353 3.11573 78.8958 3.11573C79.0634 3.11573 79.0702 3.08886 78.9266 2.99494C78.6531 2.81607 78.6987 2.76343 79.1267 2.76343C79.4246 2.76343 79.5114 2.81527 79.5114 2.99303ZM80.5052 2.90747C80.554 2.95901 80.5234 3.02957 80.4373 3.0644C80.3513 3.09913 80.281 3.05695 80.281 2.97069C80.281 2.79383 80.3733 2.76786 80.5052 2.90747ZM81.9739 2.92519C81.9739 2.98649 81.8636 3.00894 81.7287 2.97511C81.5653 2.93405 81.4568 2.98075 81.4031 3.11533C81.3092 3.35027 81.0505 3.38741 81.0505 3.16606C81.0505 3.08302 80.9812 3.01508 80.8966 3.01508C80.8119 3.01508 80.7427 2.96978 80.7427 2.91442C80.7427 2.85906 81.0197 2.81376 81.3583 2.81376C81.7058 2.81376 81.9739 2.86228 81.9739 2.92519ZM116.114 2.97642C116.617 3.12006 118.319 3.29148 119.988 3.36667L120.835 3.40472L120.065 3.26994C119.642 3.19576 119.019 3.12912 118.68 3.12187C118.342 3.11463 117.614 3.04386 117.064 2.96475C115.805 2.78356 115.454 2.78789 116.114 2.97642ZM60.2734 3.01508C60.2734 3.07044 60.0961 3.11573 59.8795 3.11573C59.6562 3.11573 59.5268 3.07215 59.5808 3.01508C59.6331 2.95971 59.8103 2.91442 59.9746 2.91442C60.139 2.91442 60.2734 2.95971 60.2734 3.01508ZM60.889 3.01508C60.889 3.07044 60.8585 3.11573 60.8211 3.11573C60.7837 3.11573 60.7104 3.07044 60.6581 3.01508C60.6058 2.95971 60.6364 2.91442 60.726 2.91442C60.8156 2.91442 60.889 2.95971 60.889 3.01508ZM64.8488 2.97521C64.7977 3.00863 64.6649 3.01226 64.5539 2.98317C64.4311 2.95106 64.4676 2.9272 64.6469 2.92237C64.8091 2.91804 64.8999 2.9418 64.8488 2.97521ZM72.124 3.01508C72.124 3.07044 71.8644 3.11503 71.5469 3.11422C71.1176 3.11302 71.0288 3.08765 71.2006 3.01508C71.5039 2.88684 72.124 2.88684 72.124 3.01508ZM84.4364 3.279C84.4364 3.37946 84.2132 3.41731 83.6284 3.4162C83.05 3.41509 82.8859 3.38691 83.0512 3.31705C83.1782 3.2634 83.438 3.21881 83.6284 3.2179C83.8443 3.217 83.9747 3.15489 83.9747 3.05312C83.9747 2.91935 84.0164 2.9124 84.2055 3.01508C84.3325 3.08403 84.4364 3.2028 84.4364 3.279ZM86.2832 3.01508C86.4708 3.09439 86.451 3.11292 86.1769 3.11422C85.9914 3.11503 85.794 3.16415 85.7381 3.22324C85.6822 3.28242 85.5396 3.30648 85.4212 3.27679C85.0611 3.1864 85.1811 3.31675 85.5522 3.41892C85.8517 3.50146 85.8257 3.51122 85.3598 3.49119C84.9383 3.47307 84.8108 3.42063 84.7737 3.25011C84.7427 3.10738 84.8224 3.01578 85.0046 2.98498C85.4954 2.90173 86.0458 2.91472 86.2832 3.01508ZM53.8094 3.11573C53.8094 3.1711 53.7401 3.21639 53.6555 3.21639C53.5708 3.21639 53.5016 3.1711 53.5016 3.11573C53.5016 3.06037 53.5708 3.01508 53.6555 3.01508C53.7401 3.01508 53.8094 3.06037 53.8094 3.11573ZM58.8465 3.07587C58.7954 3.10929 58.6626 3.11292 58.5516 3.08383C58.4288 3.05172 58.4653 3.02786 58.6446 3.02303C58.8068 3.0187 58.8976 3.04245 58.8465 3.07587ZM70.3894 3.07587C70.3383 3.10929 70.2054 3.11292 70.0945 3.08383C69.9717 3.05172 70.0081 3.02786 70.1874 3.02303C70.3496 3.0187 70.4405 3.04245 70.3894 3.07587ZM77.8185 3.11573C77.8185 3.1711 77.7451 3.21639 77.6555 3.21639C77.5659 3.21639 77.5353 3.1711 77.5876 3.11573C77.64 3.06037 77.7132 3.01508 77.7506 3.01508C77.788 3.01508 77.8185 3.06037 77.8185 3.11573ZM91.6699 3.12087C92.0508 3.16516 92.5702 3.19918 92.8242 3.19636C93.1648 3.19254 93.1041 3.17009 92.5933 3.1106C92.2124 3.06631 91.693 3.03229 91.439 3.03511C91.0984 3.03893 91.1591 3.06138 91.6699 3.12087ZM105.646 3.18448C105.757 3.21357 105.89 3.20995 105.941 3.17653C105.992 3.14311 105.902 3.11936 105.739 3.12369C105.56 3.12852 105.524 3.15237 105.646 3.18448ZM106.599 3.21639C106.599 3.27175 106.672 3.31705 106.762 3.31705C106.851 3.31705 106.882 3.27175 106.829 3.21639C106.777 3.16103 106.704 3.11573 106.667 3.11573C106.629 3.11573 106.599 3.16103 106.599 3.21639ZM63.0563 3.31705C63.134 3.31705 63.1975 3.38499 63.1975 3.46804C63.1975 3.66191 63.2297 3.65919 63.8667 3.41338C64.3932 3.21025 64.4054 3.21005 64.8819 3.39959L65.3642 3.59144L64.7811 3.65446C64.0231 3.73639 59.0806 3.71797 57.8878 3.62879C57.0751 3.56799 57.2359 3.54977 59.2291 3.47669C60.4747 3.4311 61.7213 3.35852 61.9994 3.31554C62.2775 3.27256 62.5972 3.25535 62.71 3.27719C62.8226 3.29913 62.9785 3.31705 63.0563 3.31705ZM80.5471 3.27719C80.496 3.31061 80.3631 3.31423 80.2522 3.28514C80.1294 3.25303 80.1658 3.22918 80.3451 3.22434C80.5073 3.22002 80.5982 3.24377 80.5471 3.27719ZM67.6608 3.46804C67.8228 3.59567 67.7901 3.61903 67.4487 3.61903C67.0586 3.61903 66.9356 3.523 67.1478 3.38419C67.3071 3.28001 67.4522 3.30376 67.6608 3.46804ZM108.197 3.54222C108.218 3.80887 108.533 3.86705 109.238 3.73418L109.754 3.63714L109.258 3.62808C108.884 3.62124 108.785 3.58208 108.852 3.46804C108.916 3.35892 108.835 3.31705 108.56 3.31705C108.264 3.31705 108.184 3.36678 108.197 3.54222ZM89.7461 3.51837C89.86 3.63896 90.5484 3.63896 90.9773 3.51837C91.2028 3.45495 91.0666 3.42999 90.4681 3.42476C89.96 3.42043 89.687 3.45576 89.7461 3.51837ZM100.516 3.82638C100.799 3.88164 101.031 3.87832 101.124 3.81772C101.221 3.75411 101.06 3.7227 100.666 3.72834C100.065 3.7369 100.063 3.738 100.516 3.82638ZM101.982 3.82034C101.982 3.8757 102.241 3.91647 102.559 3.91093C103.074 3.90198 103.094 3.89231 102.751 3.82034C102.201 3.70509 101.982 3.70509 101.982 3.82034ZM76.5363 3.94335C76.1165 4.01612 75.897 4.0131 75.7745 3.93298C75.6475 3.84994 75.8023 3.82306 76.3641 3.83071L77.1259 3.84118L76.5363 3.94335ZM107.563 3.99076C107.713 4.01632 107.921 4.01461 108.025 3.98703C108.129 3.95945 108.007 3.93862 107.753 3.94063C107.499 3.94264 107.414 3.96519 107.563 3.99076ZM98.1576 4.24774C97.9814 4.36299 97.6272 4.25136 97.7516 4.1198C97.7979 4.07068 97.9423 4.05709 98.0722 4.0897C98.2265 4.12846 98.2561 4.18332 98.1576 4.24774ZM104.675 4.12232C104.727 4.17768 104.991 4.21845 105.261 4.21291C105.73 4.20335 105.735 4.19932 105.367 4.12232C104.815 4.00656 104.565 4.00656 104.675 4.12232ZM110.831 4.12232C110.883 4.17768 111.043 4.22227 111.186 4.22147C111.411 4.22006 111.415 4.20637 111.216 4.12232C110.914 3.99488 110.711 3.99488 110.831 4.12232ZM107.984 4.32363C108.111 4.37728 108.457 4.41876 108.753 4.41564C109.193 4.41111 109.236 4.3943 108.984 4.32363C108.815 4.27602 108.469 4.23465 108.215 4.23163C107.862 4.2274 107.807 4.24915 107.984 4.32363ZM91.7058 4.4411C91.5728 4.52807 91.4344 4.52978 91.1748 4.44795C90.8448 4.34397 90.8557 4.33682 91.3544 4.33048C91.7592 4.32524 91.8426 4.35162 91.7058 4.4411ZM96.5687 4.62027C96.9353 4.66537 97.3162 4.75838 97.4152 4.82713C97.5577 4.92587 97.4667 4.93705 96.9796 4.88017C96.641 4.84061 96.1216 4.78908 95.8253 4.76562C95.5291 4.74217 94.5941 4.65812 93.7476 4.5788L92.2086 4.43476L94.0554 4.4866C95.0712 4.51509 96.2022 4.57528 96.5687 4.62027ZM117.333 4.49093C117.439 4.51891 117.613 4.51891 117.718 4.49093C117.824 4.46305 117.737 4.4402 117.526 4.4402C117.314 4.4402 117.228 4.46305 117.333 4.49093ZM104.29 4.72526C104.29 4.7774 104.635 4.84988 105.057 4.88652C106.226 4.98798 105.811 5.14984 104.584 5.07072C103.569 5.00529 103.521 5.01194 103.521 5.21657C103.521 5.37803 103.615 5.43088 103.905 5.43088C104.117 5.43088 104.29 5.48131 104.29 5.54301C104.29 5.6178 104.047 5.63551 103.559 5.59616C102.938 5.54613 102.892 5.55328 103.251 5.64347C103.484 5.70185 103.674 5.77986 103.675 5.8167C103.675 5.85364 104.152 5.89149 104.735 5.90075C105.353 5.91061 105.992 5.98409 106.266 6.0769C106.831 6.26765 107.693 6.28466 107.963 6.11032C108.12 6.00946 108.202 6.02325 108.379 6.17987C108.5 6.28738 108.599 6.3213 108.599 6.25537C108.599 6.18944 108.745 6.13548 108.924 6.13548C109.148 6.13548 109.221 6.18189 109.16 6.28547C109.063 6.44994 109.301 6.50289 110.446 6.57184C110.827 6.59479 111.589 6.6728 112.139 6.74527C112.689 6.81765 113.382 6.86737 113.678 6.8559C113.975 6.84432 114.574 6.82479 115.011 6.81231C115.448 6.79993 115.857 6.75665 115.919 6.71608C115.982 6.67562 116.213 6.66535 116.433 6.69323C116.783 6.73772 116.793 6.73229 116.512 6.65045C116.336 6.59891 115.286 6.47853 114.179 6.3829C112.174 6.20967 111.656 6.11596 111.883 5.96769C111.948 5.92481 112.059 5.95007 112.129 6.02395C112.205 6.10428 112.279 6.11626 112.313 6.05365C112.395 5.90276 113.217 5.78419 113.217 5.9233C113.217 5.99265 113.569 6.03483 114.15 6.03483C114.664 6.03483 115.235 6.08918 115.42 6.15572C115.605 6.22225 116.622 6.30872 117.68 6.34797C118.738 6.38713 119.839 6.45306 120.128 6.49443C120.508 6.54899 120.622 6.53761 120.542 6.45316C120.481 6.38914 120.501 6.3368 120.586 6.3368C120.67 6.3368 120.786 6.38602 120.843 6.44622C120.9 6.50641 121.077 6.53329 121.237 6.50601C121.397 6.47863 121.527 6.49675 121.527 6.54617C121.527 6.82318 123.658 7.10603 126.375 7.18998C127.137 7.21353 128.488 7.25984 129.377 7.29275C130.661 7.34046 130.932 7.32818 130.697 7.23296C130.277 7.06235 129.541 6.96732 127.281 6.79198C126.191 6.70732 125.125 6.6124 124.913 6.5811C124.677 6.54617 124.766 6.60143 125.144 6.72434C125.894 6.96803 125.571 6.99571 124.441 6.78443C123.137 6.54074 123.127 6.53751 123.341 6.45095C123.445 6.40887 123.097 6.37394 122.567 6.37324C121.567 6.37183 120.391 6.17907 120.524 6.03835C120.62 5.93658 119.679 5.78046 117.508 5.53828C116.537 5.42987 115.696 5.28049 115.541 5.18859C115.228 5.00318 114.995 4.9754 115.153 5.14219C115.231 5.22483 114.97 5.23932 114.2 5.19483C112.57 5.10082 113.161 5.19584 116.592 5.57904C118.321 5.77231 119.798 5.97081 119.874 6.02013C120.08 6.15511 119.286 6.25356 118.635 6.17363C118.163 6.11575 118.12 6.09129 118.375 6.02627C118.557 5.97966 118.128 5.94544 117.308 5.94121C116.553 5.93739 115.982 5.90357 116.039 5.86612C116.239 5.73537 114.973 5.53012 113.37 5.43339C111.718 5.33364 108.37 5.01355 105.475 4.67856C105.214 4.64826 105.081 4.66768 105.138 4.72778C105.255 4.85179 105.18 4.85199 104.685 4.72878C104.442 4.66839 104.29 4.66708 104.29 4.72526ZM91.7468 4.82693C91.8063 4.88984 91.4889 4.92758 90.9004 4.92758C90.3118 4.92758 89.9945 4.88984 90.0539 4.82693C90.1062 4.77156 90.4871 4.72627 90.9004 4.72627C91.3136 4.72627 91.6945 4.77156 91.7468 4.82693ZM92.4394 4.82693C92.4394 4.88229 92.3702 4.92758 92.2855 4.92758C92.2009 4.92758 92.1316 4.88229 92.1316 4.82693C92.1316 4.77156 92.2009 4.72627 92.2855 4.72627C92.3702 4.72627 92.4394 4.77156 92.4394 4.82693ZM93.9015 4.92758C93.9597 4.98909 93.7388 5.02552 93.3335 5.0212C92.8217 5.01566 92.7406 4.99432 92.9781 4.92758C93.4039 4.8079 93.7884 4.8079 93.9015 4.92758ZM110.6 4.92758C110.812 4.97187 111.123 5.00952 111.293 5.01113L111.601 5.01405L111.293 4.92758C111.123 4.87997 110.812 4.84243 110.6 4.84404L110.215 4.84696L110.6 4.92758ZM112.726 4.89568C112.837 4.92477 112.97 4.92114 113.021 4.88772C113.072 4.8543 112.981 4.83055 112.819 4.83488C112.64 4.83971 112.603 4.86356 112.726 4.89568ZM70.3343 5.13383C70.4691 5.22805 70.3529 5.24003 69.8154 5.18698C68.8759 5.09417 68.5737 4.88239 69.4878 4.95728C69.8578 4.98758 70.2387 5.067 70.3343 5.13383ZM98.4129 5.09699C98.5239 5.12608 98.6567 5.12246 98.7078 5.08904C98.7589 5.05562 98.6681 5.03187 98.5059 5.03619C98.3266 5.04103 98.2901 5.06488 98.4129 5.09699ZM108.061 5.22956C108.3 5.2968 108.225 5.31764 107.724 5.32317C107.369 5.327 107.036 5.28492 106.983 5.22956C106.868 5.10726 107.625 5.10726 108.061 5.22956ZM82.1495 5.43088C82.8228 5.43088 83.3441 5.6187 82.9246 5.7101C82.825 5.73184 82.7434 5.83643 82.7434 5.94252C82.7434 6.08827 82.6343 6.13548 82.2982 6.13548C82.0444 6.13548 81.8148 6.07056 81.7643 5.9845C81.7095 5.89088 81.7651 5.83351 81.9108 5.83351C82.0402 5.83351 82.1032 5.78821 82.0509 5.73285C81.9985 5.67749 81.7215 5.63219 81.4352 5.63219C81.149 5.63219 80.8672 5.58186 80.809 5.52026C80.6699 5.3731 81.08 5.20862 81.2724 5.33444C81.3535 5.38749 81.7481 5.43088 82.1495 5.43088ZM80.4349 5.42896C80.4349 5.61206 79.7515 5.62776 77.6646 5.49238L75.5869 5.3576L78.0109 5.34391C79.5071 5.33545 80.4349 5.36796 80.4349 5.42896ZM99.128 5.43762C98.9722 5.6024 99.0966 5.61136 99.519 5.4658C99.8881 5.33857 99.8899 5.33314 99.5666 5.33173C99.3811 5.33092 99.1837 5.37853 99.128 5.43762ZM110.372 5.43349C110.425 5.49026 110.655 5.52429 110.881 5.50899C111.203 5.48724 111.303 5.52902 111.34 5.69994C111.375 5.86079 111.294 5.93054 111.032 5.96396L110.677 6.00926L111.03 6.08515C111.849 6.26161 111.036 6.51336 110.041 6.39126C109.634 6.34133 109.525 6.28013 109.534 6.10579C109.542 5.93789 109.57 5.92219 109.649 6.04107C109.72 6.14847 109.871 6.17967 110.125 6.13931C110.514 6.0773 110.45 6.05073 108.984 5.66994C108.735 5.60522 108.787 5.58317 109.254 5.55468C109.571 5.53526 109.831 5.47678 109.831 5.42484C109.831 5.2973 110.249 5.30405 110.372 5.43349ZM105.06 5.53153C105.06 5.5869 104.994 5.63219 104.915 5.63219C104.835 5.63219 104.727 5.5869 104.675 5.53153C104.623 5.47617 104.688 5.43088 104.82 5.43088C104.952 5.43088 105.06 5.47617 105.06 5.53153ZM83.7438 5.63219C83.6915 5.68755 83.5794 5.73285 83.4948 5.73285C83.4101 5.73285 83.3837 5.68755 83.436 5.63219C83.4883 5.57683 83.6004 5.53153 83.685 5.53153C83.7697 5.53153 83.7961 5.57683 83.7438 5.63219ZM89.0258 5.909C89.0606 6.06935 89.179 6.13548 89.431 6.13548C89.6578 6.13548 89.8164 6.20866 89.8677 6.3368C89.92 6.46766 89.8723 6.53812 89.7316 6.53812C89.6127 6.53812 89.5152 6.46524 89.5152 6.37626C89.5152 6.25235 89.4217 6.2297 89.1177 6.27963C88.8003 6.33167 88.7035 6.30338 88.638 6.13951C88.5202 5.84508 88.2908 5.88535 88.3742 6.18581C88.4631 6.50691 88.3023 6.50561 87.9051 6.18199C87.6257 5.9545 87.4437 5.91977 86.2395 5.86481C84.0873 5.76657 84.5015 5.62353 86.8485 5.65444C88.9233 5.68182 88.9778 5.68816 89.0258 5.909ZM100.904 5.73879C100.904 5.79737 100.973 5.8174 101.058 5.78318C101.143 5.74896 101.212 5.70104 101.212 5.67658C101.212 5.65212 101.143 5.63219 101.058 5.63219C100.973 5.63219 100.904 5.68021 100.904 5.73879ZM80.063 5.80834C79.9995 5.84982 79.7975 5.89098 79.6141 5.89964C79.4306 5.9083 79.1074 5.94272 78.8958 5.97624C78.6842 6.00966 78.598 6.01006 78.7044 5.97705C78.8107 5.94403 78.8586 5.87558 78.8107 5.82495C78.7628 5.77422 79.0506 5.73285 79.4511 5.73285C79.8511 5.73285 80.1264 5.76687 80.063 5.80834ZM80.9798 5.92742C80.9241 5.98651 80.7267 6.03412 80.5412 6.03332C80.2178 6.03191 80.2197 6.02647 80.5888 5.89924C81.0112 5.75369 81.1356 5.76265 80.9798 5.92742ZM74.843 5.97544C74.843 6.08042 74.6993 6.10448 74.2915 6.06774C73.8728 6.03009 73.7956 6.04409 73.9709 6.12562C74.2277 6.2452 74.1249 6.26845 73.7526 6.17504C73.2212 6.04167 73.5836 5.88736 74.5223 5.8472C74.7056 5.83935 74.843 5.89431 74.843 5.97544ZM75.615 6.05375C75.5659 6.13397 75.5295 6.11012 75.5221 5.99285C75.5154 5.88676 75.5518 5.82737 75.6029 5.86079C75.654 5.89421 75.6595 5.98107 75.615 6.05375ZM77.6646 6.03875C77.6646 6.20937 77.6283 6.22215 77.4499 6.11424C77.2284 5.98037 77.2649 5.83351 77.5198 5.83351C77.5995 5.83351 77.6646 5.92591 77.6646 6.03875ZM78.2032 5.93417C78.2556 5.98953 78.2291 6.03483 78.1444 6.03483C78.0598 6.03483 77.9478 5.98953 77.8954 5.93417C77.8431 5.87881 77.8696 5.83351 77.9542 5.83351C78.0389 5.83351 78.1509 5.87881 78.2032 5.93417ZM84.1273 5.93155C84.3102 6.00714 84.3179 6.05194 84.1658 6.15139C84.0207 6.24631 83.9747 6.24731 83.9747 6.15562C83.9747 5.99537 83.4038 5.9997 83.3159 6.16065C83.2782 6.2299 83.1947 6.25446 83.1302 6.21531C83.0659 6.17615 83.0542 6.07428 83.1043 5.98882C83.2055 5.8164 83.7721 5.78469 84.1273 5.93155ZM70.7389 6.12793C70.7389 6.22064 70.6558 6.35089 70.5542 6.41733C70.4106 6.51124 70.4418 6.53812 70.6953 6.53812C70.8745 6.53812 71.0528 6.48155 71.0916 6.41229C71.1479 6.31164 71.2029 6.31164 71.366 6.41229C71.6706 6.60022 75.256 6.58724 75.497 6.3973C75.7269 6.21621 76.5983 6.40213 76.4783 6.60667C76.4316 6.68619 76.5151 6.74195 76.6862 6.74578C76.9069 6.75071 76.8844 6.77557 76.5872 6.85469C76.3756 6.91116 75.8908 6.92887 75.5099 6.89415C74.1199 6.76742 70.4735 6.61955 69.1661 6.63676C67.6982 6.65619 67.0187 6.52866 68.0455 6.42659L68.6612 6.36539L67.9301 6.35109C67.3731 6.34022 67.1991 6.37274 67.1991 6.48779C67.1991 6.68488 66.9814 6.68015 66.7241 6.47742C66.512 6.31023 66.587 6.30962 63.6656 6.50349C62.9364 6.55181 62.8502 6.53953 63.0139 6.41048C63.2086 6.25708 66.1924 6.04852 68.8151 6.00493C69.4922 5.99366 70.2022 5.97886 70.3926 5.97191C70.6216 5.96356 70.7389 6.01651 70.7389 6.12793ZM73.3552 6.03483C73.3552 6.09019 73.286 6.13548 73.2013 6.13548C73.1167 6.13548 73.0474 6.09019 73.0474 6.03483C73.0474 5.97946 73.1167 5.93417 73.2013 5.93417C73.286 5.93417 73.3552 5.97946 73.3552 6.03483ZM85.3983 6.0008C85.2926 6.02879 85.1194 6.02879 85.0135 6.0008C84.9078 5.97292 84.9943 5.95007 85.2059 5.95007C85.4175 5.95007 85.5042 5.97292 85.3983 6.0008ZM90.5926 6.03483C90.5926 6.09019 90.6618 6.13548 90.7465 6.13548C90.8311 6.13548 90.9004 6.09019 90.9004 6.03483C90.9004 5.97946 90.8311 5.93417 90.7465 5.93417C90.6618 5.93417 90.5926 5.97946 90.5926 6.03483ZM102.042 6.1527C101.999 6.1986 102.089 6.23685 102.242 6.23765C102.457 6.23886 102.472 6.25899 102.311 6.32573C102.197 6.37334 102.162 6.43625 102.234 6.46544C102.513 6.57798 105.456 6.65347 105.829 6.55775L106.214 6.4591L105.829 6.39871C104.943 6.2596 102.115 6.07589 102.042 6.1527ZM73.817 6.37133C73.9439 6.39891 73.7534 6.42518 73.3937 6.42951C72.9197 6.43524 72.7396 6.3973 72.7396 6.29171C72.7396 6.14716 72.8124 6.1525 73.817 6.37133ZM83.8208 6.23614C83.8208 6.2915 83.7473 6.3368 83.6578 6.3368C83.5682 6.3368 83.5376 6.2915 83.5899 6.23614C83.6422 6.18078 83.7155 6.13548 83.7529 6.13548C83.7903 6.13548 83.8208 6.18078 83.8208 6.23614ZM87.6684 6.23614C87.6684 6.2915 87.5603 6.3368 87.4284 6.3368C87.2965 6.3368 87.2313 6.2915 87.2836 6.23614C87.3359 6.18078 87.4438 6.13548 87.5236 6.13548C87.6033 6.13548 87.6684 6.18078 87.6684 6.23614ZM96.287 6.2757C96.287 6.29744 96.3945 6.34224 96.5259 6.37525C96.6629 6.40958 96.7246 6.39267 96.6707 6.33569C96.5804 6.23997 96.287 6.19417 96.287 6.2757ZM97.98 6.45528L97.5952 6.56107L98.0171 6.6583C98.3371 6.73209 98.494 6.7196 98.6672 6.60626C98.8689 6.4744 98.8677 6.45004 98.6561 6.39689C98.5243 6.36388 98.4049 6.33972 98.3906 6.34314C98.3764 6.34667 98.1916 6.3972 97.98 6.45528ZM105.06 6.43746C105.408 6.51044 105.393 6.51809 104.906 6.51809C104.609 6.51809 104.194 6.48175 103.982 6.43746C103.634 6.36448 103.649 6.35683 104.136 6.35683C104.432 6.35683 104.848 6.39317 105.06 6.43746ZM112.995 6.48457C113.278 6.62478 113.269 6.63253 112.813 6.63555C112.548 6.63737 112.101 6.60858 111.819 6.57174C111.386 6.51507 111.353 6.49302 111.608 6.4279C112.097 6.30278 112.675 6.32643 112.995 6.48457ZM130.621 6.37294C130.656 6.39287 130.892 6.43957 131.146 6.47672C131.484 6.52604 131.546 6.51668 131.377 6.44209C131.17 6.35009 130.466 6.28587 130.621 6.37294ZM65.8139 6.53812C65.8139 6.59348 65.7447 6.63878 65.66 6.63878C65.5754 6.63878 65.5061 6.59348 65.5061 6.53812C65.5061 6.48276 65.5754 6.43746 65.66 6.43746C65.7447 6.43746 65.8139 6.48276 65.8139 6.53812ZM99.3651 6.53812C99.4921 6.59177 99.8384 6.63102 100.135 6.62529L100.673 6.61492L100.212 6.53812C99.9577 6.49584 99.6114 6.45658 99.4421 6.45095C99.1888 6.44239 99.1752 6.45779 99.3651 6.53812ZM94.0554 6.63878C94.0031 6.69414 94.107 6.73943 94.2863 6.73943C94.4656 6.73943 94.5695 6.69414 94.5171 6.63878C94.4648 6.58341 94.3609 6.53812 94.2863 6.53812C94.2116 6.53812 94.1077 6.58341 94.0554 6.63878ZM100.981 6.63878C101.033 6.69414 101.215 6.73943 101.384 6.73943C101.553 6.73943 101.649 6.69414 101.597 6.63878C101.544 6.58341 101.363 6.53812 101.194 6.53812C101.025 6.53812 100.929 6.58341 100.981 6.63878ZM122.836 6.63878C122.888 6.69414 122.792 6.73943 122.623 6.73943C122.454 6.73943 122.272 6.69414 122.22 6.63878C122.168 6.58341 122.263 6.53812 122.433 6.53812C122.602 6.53812 122.783 6.58341 122.836 6.63878ZM132.57 6.60475C132.676 6.63274 132.849 6.63274 132.955 6.60475C133.061 6.57687 132.974 6.55402 132.762 6.55402C132.551 6.55402 132.464 6.57687 132.57 6.60475ZM101.943 6.70541C102.049 6.7334 102.222 6.7334 102.328 6.70541C102.434 6.67753 102.347 6.65468 102.135 6.65468C101.924 6.65468 101.837 6.67753 101.943 6.70541ZM115.012 6.90723C114.956 6.94407 114.909 7.07503 114.909 7.19813C114.909 7.37811 115.013 7.42995 115.436 7.46226C115.895 7.49729 115.945 7.48018 115.822 7.32959C115.716 7.20075 115.749 7.14297 115.949 7.10291C116.097 7.07342 115.949 7.07332 115.62 7.10271C115.121 7.1474 115.037 7.13019 115.115 6.99813C115.214 6.82952 115.179 6.79832 115.012 6.90723ZM100.834 7.23588C100.785 7.28742 100.9 7.40066 101.09 7.48753C101.477 7.66479 102.221 7.6981 102.366 7.5447C102.423 7.48471 102.238 7.44404 101.909 7.44404C101.56 7.44404 101.324 7.38848 101.268 7.29306C101.168 7.12244 100.966 7.09587 100.834 7.23588ZM122.874 7.30936C122.98 7.33734 123.153 7.33734 123.259 7.30936C123.365 7.28148 123.278 7.25863 123.066 7.25863C122.855 7.25863 122.768 7.28148 122.874 7.30936ZM105.752 7.44404C105.804 7.4994 106.047 7.5447 106.291 7.5447C106.535 7.5447 106.777 7.59 106.829 7.64536C106.884 7.70324 106.741 7.74672 106.492 7.74753C106.157 7.74873 106.112 7.77088 106.291 7.84668C106.418 7.90033 106.729 7.94421 106.983 7.94421C107.298 7.94421 107.379 7.91684 107.238 7.85825C106.94 7.73484 107.943 7.62573 108.61 7.70898C108.9 7.74531 109.1 7.74712 109.053 7.7132C108.986 7.66469 106.112 7.34338 105.744 7.34338C105.696 7.34338 105.7 7.38868 105.752 7.44404ZM117.218 7.4381C117.218 7.49024 117.275 7.55597 117.345 7.58426C117.541 7.66348 118.149 7.53333 118.054 7.43257C117.941 7.31319 117.218 7.31792 117.218 7.4381ZM119.834 7.44233C120.131 7.49256 120.858 7.55728 121.45 7.58617C122.274 7.62644 122.382 7.61848 121.912 7.55265C120.991 7.42361 119.146 7.32567 119.834 7.44233ZM113.678 7.5447C113.678 7.60006 113.782 7.64536 113.909 7.64536C114.036 7.64536 114.14 7.60006 114.14 7.5447C114.14 7.48934 114.036 7.44404 113.909 7.44404C113.782 7.44404 113.678 7.48934 113.678 7.5447ZM125.067 7.4836C125.067 7.50534 125.175 7.55014 125.306 7.58315C125.443 7.61748 125.505 7.60057 125.451 7.54359C125.361 7.44787 125.067 7.40207 125.067 7.4836ZM128.299 7.54158C128.299 7.59513 128.403 7.61295 128.53 7.58114C128.657 7.54923 128.761 7.50534 128.761 7.4836C128.761 7.46186 128.657 7.44404 128.53 7.44404C128.403 7.44404 128.299 7.48793 128.299 7.54158ZM114.756 7.64536C114.883 7.69901 115.09 7.7429 115.217 7.7429C115.422 7.7429 115.422 7.73213 115.217 7.64536C115.09 7.59171 114.883 7.54782 114.756 7.54782C114.55 7.54782 114.55 7.55859 114.756 7.64536ZM87.4728 7.70616C87.4217 7.73958 87.2888 7.7432 87.1779 7.71411C87.0551 7.682 87.0915 7.65814 87.2708 7.65331C87.4331 7.64898 87.5239 7.67274 87.4728 7.70616ZM122.72 7.712C122.826 7.73998 122.999 7.73998 123.105 7.712C123.211 7.68411 123.124 7.66126 122.913 7.66126C122.701 7.66126 122.614 7.68411 122.72 7.712ZM89.0949 7.81205C88.9907 7.83963 88.783 7.84134 88.6332 7.81577C88.4835 7.79021 88.5687 7.76766 88.8227 7.76565C89.0766 7.76363 89.1991 7.78447 89.0949 7.81205ZM116.602 7.84668C116.729 7.90033 116.937 7.94421 117.064 7.94421C117.269 7.94421 117.269 7.93344 117.064 7.84668C116.937 7.79303 116.729 7.74914 116.602 7.74914C116.397 7.74914 116.397 7.75991 116.602 7.84668ZM124.423 7.81477C124.534 7.84386 124.667 7.84023 124.718 7.80682C124.769 7.7734 124.678 7.74964 124.516 7.75397C124.336 7.7588 124.3 7.78266 124.423 7.81477ZM91.9008 7.94733L92.3625 8.02414L91.8238 8.0345C91.5275 8.04024 91.1813 8.00099 91.0543 7.94733C90.8644 7.86701 90.8779 7.85161 91.1312 7.86016C91.3005 7.8658 91.6468 7.90506 91.9008 7.94733ZM98.2878 7.94733C98.5891 8.07477 98.7929 8.07477 98.6726 7.94733C98.6202 7.89197 98.4603 7.84738 98.3172 7.84819C98.0929 7.84959 98.0888 7.86328 98.2878 7.94733ZM102.289 8.14865C102.289 8.20401 102.359 8.24931 102.443 8.24931C102.528 8.24931 102.597 8.20401 102.597 8.14865C102.597 8.09329 102.528 8.04799 102.443 8.04799C102.359 8.04799 102.289 8.09329 102.289 8.14865ZM97.5055 8.41479C97.5407 8.43452 97.2769 8.45063 96.9193 8.45063C96.5396 8.45063 96.3072 8.41006 96.3609 8.35329C96.4411 8.26843 97.3291 8.31615 97.5055 8.41479ZM111.957 8.31806C112.067 8.34715 112.2 8.34353 112.251 8.31011C112.303 8.27669 112.212 8.25293 112.049 8.25726C111.87 8.26209 111.834 8.28595 111.957 8.31806ZM113.104 8.41972C113.254 8.44529 113.462 8.44358 113.566 8.416C113.67 8.38842 113.547 8.36758 113.293 8.3696C113.04 8.37161 112.954 8.39416 113.104 8.41972ZM114.519 8.64721C114.954 8.76267 115.341 8.81239 115.418 8.76247C115.608 8.63795 115.405 8.57997 114.525 8.5075L113.755 8.44408L114.519 8.64721ZM107.637 8.62235C107.828 8.64631 108.14 8.64631 108.33 8.62235C108.52 8.59829 108.365 8.57866 107.984 8.57866C107.603 8.57866 107.447 8.59829 107.637 8.62235ZM96.9796 8.85326C97.1 8.98069 96.8962 8.98069 96.5948 8.85326C96.3958 8.76921 96.4 8.75552 96.6242 8.75411C96.7674 8.75331 96.9273 8.7979 96.9796 8.85326ZM112.139 8.85326C111.841 8.97938 111.677 8.97938 111.677 8.85326C111.677 8.7979 111.833 8.75331 112.024 8.75411C112.304 8.75542 112.326 8.77434 112.139 8.85326ZM113.755 8.97989C113.858 9.04703 113.755 9.05709 113.447 9.01008C113.193 8.97133 112.916 8.89433 112.832 8.83897C112.729 8.77193 112.832 8.76186 113.14 8.80877C113.394 8.84752 113.671 8.92452 113.755 8.97989ZM99.0529 8.94999C99.1774 9.00153 99.2375 9.07098 99.1864 9.1043C99.0559 9.18976 98.2878 9.05186 98.2878 8.94305C98.2878 8.82598 98.7635 8.83031 99.0529 8.94999ZM102.59 9.15614C105.169 9.3494 106.333 9.44141 108.907 9.65551C109.542 9.70825 110.53 9.78123 111.103 9.81757C112.079 9.87957 112.723 10.0612 111.966 10.0612C110.686 10.0612 99.6342 9.16641 99.4498 9.04793C99.2448 8.91607 99.5056 8.92503 102.59 9.15614ZM106.906 9.05458C106.906 9.10994 106.837 9.15523 106.753 9.15523C106.668 9.15523 106.599 9.10994 106.599 9.05458C106.599 8.99921 106.668 8.95392 106.753 8.95392C106.837 8.95392 106.906 8.99921 106.906 9.05458ZM109.455 9.303C109.841 9.49385 109.58 9.49576 108.446 9.31055L107.599 9.17235L108.378 9.16379C108.843 9.15866 109.277 9.21472 109.455 9.303ZM113.637 9.31669C113.585 9.35011 113.453 9.35373 113.342 9.32464C113.219 9.29253 113.255 9.26868 113.435 9.26384C113.597 9.25952 113.688 9.28327 113.637 9.31669ZM112.049 9.56642C112.175 9.6541 112.064 9.66557 111.601 9.61252C110.765 9.5171 110.465 9.30924 111.28 9.39007C111.611 9.42298 111.957 9.50231 112.049 9.56642ZM113.447 9.55787C113.5 9.61323 113.469 9.65853 113.38 9.65853C113.29 9.65853 113.217 9.61323 113.217 9.55787C113.217 9.50251 113.247 9.45721 113.284 9.45721C113.322 9.45721 113.395 9.50251 113.447 9.55787ZM122.451 9.60226C122.451 9.84464 122.202 9.86649 121.832 9.65641L121.48 9.45721H121.966C122.286 9.45721 122.451 9.50663 122.451 9.60226ZM116.795 9.6245C116.689 9.65249 116.602 9.74851 116.602 9.838C116.602 9.95748 116.557 9.97097 116.431 9.88873C116.213 9.746 116.388 9.55545 116.727 9.56582C116.887 9.57075 116.913 9.5933 116.795 9.6245ZM118.093 9.87877C118.044 9.95899 118.007 9.93513 118 9.81787C117.993 9.71177 118.029 9.65238 118.081 9.6858C118.132 9.71922 118.137 9.80609 118.093 9.87877ZM124.56 9.87987C124.961 10.0374 124.842 10.2227 124.298 10.2889C124.086 10.3147 124.276 10.3419 124.721 10.3494C125.469 10.3621 125.788 10.2471 125.337 10.1278C125.231 10.0999 125.331 10.0734 125.558 10.0691C126.222 10.0563 126.239 9.86004 125.576 9.85843C125.254 9.85773 124.817 9.83226 124.605 9.80186C124.223 9.7469 124.223 9.74741 124.56 9.87987ZM113.832 10.0612C113.832 10.1165 113.594 10.1618 113.303 10.1618C113.011 10.1618 112.73 10.1165 112.678 10.0612C112.62 10.0004 112.83 9.9605 113.207 9.9605C113.551 9.9605 113.832 10.0058 113.832 10.0612ZM115.794 10.1607C115.985 10.1613 116.141 10.2133 116.141 10.2762C116.141 10.4137 114.871 10.3222 114.475 10.1562C114.276 10.0728 114.358 10.0608 114.833 10.1038C115.171 10.1345 115.604 10.1601 115.794 10.1607ZM120.604 10.2744C120.604 10.3297 120.535 10.347 120.45 10.3128C120.365 10.2786 120.296 10.2053 120.296 10.1499C120.296 10.0946 120.365 10.0773 120.45 10.1115C120.535 10.1457 120.604 10.219 120.604 10.2744ZM123.499 10.2306C123.61 10.2597 123.743 10.256 123.794 10.2226C123.845 10.1892 123.755 10.1654 123.592 10.1698C123.413 10.1746 123.377 10.1985 123.499 10.2306ZM126.914 10.2415C126.914 10.3917 129.056 10.5126 129.267 10.3742C129.392 10.2924 129.166 10.2625 128.42 10.2625C127.859 10.2625 127.291 10.235 127.158 10.2014C127.024 10.1678 126.914 10.1858 126.914 10.2415ZM116.91 10.3631C116.91 10.4185 116.806 10.4638 116.679 10.4638C116.552 10.4638 116.449 10.4185 116.449 10.3631C116.449 10.3078 116.552 10.2625 116.679 10.2625C116.806 10.2625 116.91 10.3078 116.91 10.3631ZM117.68 10.3631C117.68 10.4185 117.541 10.4638 117.372 10.4638C117.203 10.4638 117.064 10.4185 117.064 10.3631C117.064 10.3078 117.203 10.2625 117.372 10.2625C117.541 10.2625 117.68 10.3078 117.68 10.3631ZM119.452 10.5615C119.413 10.6036 119.19 10.6144 118.957 10.5853C118.584 10.5386 118.57 10.5242 118.838 10.4617C119.18 10.3823 119.563 10.4446 119.452 10.5615ZM130.3 10.4638C130.427 10.5174 130.635 10.5589 130.762 10.5558C130.914 10.5522 130.888 10.5209 130.685 10.4638C130.262 10.3449 130.019 10.3449 130.3 10.4638ZM119.988 10.5645C119.988 10.6198 119.919 10.6651 119.834 10.6651C119.75 10.6651 119.681 10.6198 119.681 10.5645C119.681 10.5091 119.75 10.4638 119.834 10.4638C119.919 10.4638 119.988 10.5091 119.988 10.5645ZM115.987 10.7658C115.987 10.8211 115.918 10.8664 115.833 10.8664C115.748 10.8664 115.679 10.8211 115.679 10.7658C115.679 10.7104 115.748 10.6651 115.833 10.6651C115.918 10.6651 115.987 10.7104 115.987 10.7658ZM117.396 10.9919C117.236 11.0961 116.91 11.0142 116.91 10.8699C116.91 10.823 117.053 10.809 117.228 10.839C117.436 10.8745 117.494 10.9276 117.396 10.9919ZM118.141 10.9671C118.141 11.0224 118.072 11.0677 117.988 11.0677C117.903 11.0677 117.834 11.0224 117.834 10.9671C117.834 10.9117 117.903 10.8664 117.988 10.8664C118.072 10.8664 118.141 10.9117 118.141 10.9671ZM120.713 11.2059C120.835 11.286 120.023 11.2859 119.567 11.2059C119.377 11.1727 119.255 11.1112 119.294 11.0695C119.371 10.9876 120.553 11.1014 120.713 11.2059ZM116.42 11.3635C116.458 11.439 116.401 11.4767 116.285 11.4516C116.174 11.4273 116.053 11.348 116.016 11.2754C115.977 11.1999 116.035 11.1622 116.15 11.1873C116.261 11.2115 116.383 11.2908 116.42 11.3635ZM119.404 11.3697C119.556 11.3697 119.681 11.406 119.681 11.4502C119.681 11.6002 119.313 11.7724 118.996 11.7708C118.76 11.7696 118.733 11.7474 118.889 11.6828C119.035 11.6224 119.046 11.5754 118.927 11.5273C118.834 11.4895 118.757 11.3842 118.757 11.2933C118.757 11.1649 118.798 11.155 118.942 11.2489C119.043 11.3154 119.251 11.3697 119.404 11.3697ZM117.834 11.3697C117.834 11.4251 117.626 11.4704 117.372 11.4704C117.118 11.4704 116.91 11.4251 116.91 11.3697C116.91 11.3144 117.118 11.2691 117.372 11.2691C117.626 11.2691 117.834 11.3144 117.834 11.3697ZM126.837 11.3745C128.332 11.5598 129.156 11.6019 128.988 11.4845C128.901 11.4239 128.208 11.3529 127.449 11.3267C126.275 11.2864 126.183 11.2935 126.837 11.3745ZM128.425 11.9956C128.507 12.0493 128.703 12.0754 128.86 12.0536C129.072 12.0243 129.033 11.9989 128.711 11.9561C128.43 11.9185 128.329 11.9326 128.425 11.9956ZM112.707 12.6572C112.554 12.6782 112.314 12.6664 112.173 12.6311C111.959 12.5773 111.953 12.5524 112.135 12.4786C112.267 12.4253 112.479 12.4357 112.67 12.5047C112.96 12.6098 112.963 12.6222 112.707 12.6572ZM117.333 12.5436C117.439 12.5716 117.613 12.5716 117.718 12.5436C117.824 12.5157 117.737 12.4929 117.526 12.4929C117.314 12.4929 117.228 12.5157 117.333 12.5436ZM121.63 12.7454C121.349 12.9291 121.886 13.0005 122.451 12.8545C122.578 12.8217 122.786 12.7722 122.913 12.7445C123.04 12.7168 122.826 12.6906 122.438 12.6862C122.05 12.6819 121.686 12.7085 121.63 12.7454ZM118.952 13.2538C119.186 13.2769 119.532 13.2763 119.721 13.2524C119.91 13.2286 119.719 13.2097 119.296 13.2104C118.873 13.2112 118.718 13.2307 118.952 13.2538ZM120.95 13.3516C121.098 13.3769 121.341 13.3769 121.489 13.3516C121.637 13.3263 121.516 13.3056 121.22 13.3056C120.923 13.3056 120.802 13.3263 120.95 13.3516ZM2.63609 13.5842C2.38214 13.6942 2.10511 13.7842 2.02047 13.7842C1.93582 13.7842 2.07433 13.6942 2.32828 13.5842C2.58222 13.4742 2.85925 13.3842 2.9439 13.3842C3.02854 13.3842 2.89003 13.4742 2.63609 13.5842ZM119.373 14.3835C119.373 14.5282 119.121 14.5984 118.848 14.53C118.472 14.4357 118.557 14.2888 118.988 14.2888C119.2 14.2888 119.373 14.3314 119.373 14.3835ZM123.836 14.3835C123.836 14.4357 123.905 14.5062 123.99 14.5405C124.075 14.5747 124.144 14.532 124.144 14.4457C124.144 14.3595 124.075 14.2888 123.99 14.2888C123.905 14.2888 123.836 14.3314 123.836 14.3835ZM114.652 14.5005C114.924 14.5814 115.11 14.5813 115.342 14.5002C115.575 14.4189 115.689 14.419 115.766 14.5006C115.84 14.5787 115.91 14.5715 116 14.4765C116.102 14.3684 116.167 14.3663 116.319 14.4658C116.424 14.5345 116.65 14.5908 116.82 14.5908C117.092 14.5908 117.102 14.6088 116.905 14.7373C116.729 14.8513 116.543 14.863 116.064 14.79C115.725 14.7385 115.026 14.6952 114.509 14.6939C113.123 14.6903 111.674 14.5752 111.768 14.476C111.887 14.3501 114.214 14.3698 114.652 14.5005ZM117.551 14.4966C117.324 14.556 117.096 14.5547 116.935 14.4932C116.74 14.4188 116.826 14.3964 117.295 14.3989C117.834 14.4018 117.866 14.414 117.551 14.4966ZM125.914 14.6914C125.966 14.7468 125.918 14.7928 125.807 14.7936C125.657 14.7948 125.662 14.8186 125.829 14.8877C125.952 14.9386 126.248 14.9547 126.487 14.9235C126.726 14.8923 127.283 14.9368 127.726 15.0227C128.832 15.2372 129.887 15.3275 129.764 15.1971C129.71 15.1405 129.514 15.0938 129.329 15.0935C129.144 15.0931 128.793 15.0251 128.551 14.9425C128.308 14.8597 127.949 14.7921 127.752 14.7921C127.555 14.7921 127.351 14.7468 127.299 14.6914C127.246 14.6361 126.892 14.5908 126.511 14.5908C126.089 14.5908 125.856 14.63 125.914 14.6914ZM111.062 15.1444C111.062 15.301 110.975 15.3961 110.831 15.3961C110.6 15.3961 110.509 15.0865 110.703 14.9599C110.912 14.823 111.062 14.9 111.062 15.1444ZM105.97 15.1586C106.005 15.1784 105.854 15.1947 105.633 15.1947C105.412 15.1947 105.187 15.1476 105.133 15.09C105.043 14.9953 105.789 15.0563 105.97 15.1586ZM107.907 15.189C108.495 15.2685 108.48 15.2727 107.561 15.2838C107.01 15.2905 106.599 15.2523 106.599 15.1947C106.599 15.0759 107.056 15.0738 107.907 15.189ZM113.844 15.2534C113.852 15.3707 113.888 15.3945 113.937 15.3143C113.982 15.2416 113.976 15.1548 113.925 15.1214C113.874 15.0879 113.838 15.1473 113.844 15.2534ZM122.797 15.1607C122.691 15.1887 122.518 15.1887 122.412 15.1607C122.307 15.1328 122.393 15.11 122.605 15.11C122.816 15.11 122.903 15.1328 122.797 15.1607ZM98.2108 15.3961C98.1585 15.4514 98.2624 15.4967 98.4417 15.4967C98.621 15.4967 98.7249 15.4514 98.6726 15.3961C98.6202 15.3407 98.5163 15.2954 98.4417 15.2954C98.3671 15.2954 98.2632 15.3407 98.2108 15.3961ZM112.293 15.7443C112.293 15.8372 112.449 15.8917 112.716 15.8924C112.949 15.8931 113.434 15.9223 113.794 15.9574C114.31 16.0077 114.448 15.9901 114.448 15.8736C114.448 15.7723 114.333 15.7403 114.081 15.7718C113.879 15.797 113.667 15.7681 113.61 15.7075C113.447 15.5348 112.293 15.5671 112.293 15.7443ZM114.826 15.8054C114.661 15.9807 114.849 16.0178 115.06 15.8514C115.182 15.7558 115.193 15.698 115.091 15.698C115.001 15.698 114.882 15.7463 114.826 15.8054ZM120.523 15.7867C120.44 15.8379 120.235 15.9016 120.065 15.9282C119.896 15.9549 120.035 15.9812 120.373 15.9868C120.712 15.9924 121.093 15.953 121.22 15.8993C121.352 15.8434 121.374 15.8011 121.271 15.8002C121.172 15.7994 120.997 15.775 120.882 15.7461C120.766 15.7173 120.605 15.7355 120.523 15.7867ZM122.375 15.8003C122.429 15.8566 122.537 15.8766 122.615 15.8447C122.829 15.7584 122.789 15.698 122.519 15.698C122.387 15.698 122.322 15.744 122.375 15.8003ZM115.987 15.9053C115.987 15.9639 116.056 15.9839 116.141 15.9497C116.225 15.9154 116.295 15.8675 116.295 15.8431C116.295 15.8186 116.225 15.7987 116.141 15.7987C116.056 15.7987 115.987 15.8467 115.987 15.9053ZM116.525 15.8993C116.473 15.9547 116.504 16 116.593 16C116.683 16 116.756 15.9547 116.756 15.8993C116.756 15.844 116.726 15.7987 116.688 15.7987C116.651 15.7987 116.578 15.844 116.525 15.8993ZM124.913 15.8382C124.913 15.86 125.021 15.9048 125.152 15.9378C125.289 15.9721 125.351 15.9552 125.297 15.8982C125.207 15.8025 124.913 15.7567 124.913 15.8382Z" fill="#F96D6D"/>
</svg>
